<?xml version="1.0" encoding="UTF-8"?>
<svg width="60.665mm" height="56.689mm" version="1.1" viewBox="0 0 60.665 56.689" xmlns="http://www.w3.org/2000/svg" xmlns:xlink="http://www.w3.org/1999/xlink">
 <defs>
  <linearGradient id="linearGradient1236" x1="442.93" x2="388.35" y1="55.046" y2="86.701" gradientTransform="matrix(.85155 0 0 .85155 60.693 8.962)" gradientUnits="userSpaceOnUse">
   <stop stop-color="#ff008c" offset="0"/>
   <stop stop-color="#130979" offset=".44575"/>
   <stop stop-color="#74945e" offset="1"/>
  </linearGradient>
  <clipPath id="clipPath1258">
   <rect x="395.3" y="49.965" width="45.375" height="32.734" ry="4.4955" d="m 399.7942,49.96484 h 36.38395 c 2.4905,0 4.4955,2.004991 4.4955,4.495496 v 23.742673 c 0,2.490505 -2.005,4.495496 -4.4955,4.495496 H 399.7942 c -2.4905,0 -4.49549,-2.004991 -4.49549,-4.495496 V 54.460336 c 0,-2.490505 2.00499,-4.495496 4.49549,-4.495496 z" fill="#f2f2f2" stroke-linecap="round" stroke-width=".55287" style="paint-order:markers fill stroke"/>
  </clipPath>
 </defs>
 <path transform="matrix(1.1461 0 0 1.1461 -448.89 -42.773)" d="m453.81 88.229c0.98637-0.98572 1.5536-2.3779 1.537-3.7723-0.0166-1.3944-0.61691-2.7727-1.6265-3.7346s-2.4153-1.4949-3.8088-1.4441c-1.3936 0.05079-2.7567 0.68467-3.6936 1.7175-0.71131 0.78418-1.1688 1.7647-1.5326 2.759-0.36388 0.99423-0.64538 2.0192-1.062 2.9925-0.41661 0.97331-0.98404 1.9089-1.8117 2.5691-0.41384 0.33009-0.88972 0.58662-1.401 0.72371-0.51131 0.13709-1.0584 0.15228-1.5701 0.01658-0.50375-0.1336-0.9639-0.41037-1.3452-0.76568-0.38127-0.35531-0.68594-0.78756-0.92765-1.2493-0.48344-0.92345-0.71575-1.9533-0.98703-2.9597-0.27129-1.0064-0.59777-2.0245-1.2324-2.8514-0.31731-0.41344-0.71058-0.77329-1.17-1.0193-0.45944-0.24604-0.98681-0.37479-1.5061-0.33033-0.53378 0.0457-1.0441 0.27304-1.464 0.6057-0.41994 0.33266-0.75253 0.76723-1.0049 1.2398-0.50478 0.9451-0.69014 2.0221-0.89522 3.0737-0.20508 1.0516-0.44842 2.1264-1.0459 3.0158-0.29873 0.44471-0.68551 0.83594-1.1508 1.1014-0.46531 0.26551-1.0116 0.4004-1.5437 0.33814-0.43925-0.05139-0.85807-0.23494-1.2136-0.49791-0.35557-0.26297-0.64969-0.60344-0.88657-0.9769-0.47375-0.74692-0.71759-1.6125-0.96408-2.462-0.24648-0.84946-0.50907-1.7123-1.0127-2.4394-0.25184-0.36354-0.56346-0.68925-0.93437-0.9301-0.37091-0.24085-0.80282-0.39456-1.2448-0.41018-0.49045-0.01733-0.97972 0.13646-1.3942 0.39929s-0.7563 0.63107-1.022 1.0437c-0.53141 0.8252-0.75691 1.8053-0.95785 2.7661s-0.39305 1.9428-0.87073 2.8002c-0.23883 0.42872-0.54918 0.82182-0.93659 1.1231-0.3874 0.30126-0.85438 0.50784-1.343 0.55312-0.43444 0.04025-0.87629-0.04754-1.2753-0.22408-0.39899-0.17655-0.75628-0.4398-1.0652-0.7479-0.61785-0.61621-1.0378-1.3989-1.4378-2.1744-0.40002-0.77552-0.79623-1.5667-1.3792-2.216-0.2915-0.32464-0.62902-0.61118-1.0121-0.82003s-0.813-0.33837-1.2492-0.34609c-0.47068-0.0083-0.93861 0.12558-1.3512 0.35216-0.41263 0.22659-0.77159 0.54357-1.0751 0.90344-0.60697 0.71974-0.98919 1.5972-1.3732 2.4568s-0.78841 1.7307-1.4281 2.4215c-0.31986 0.34539-0.69744 0.64161-1.1248 0.83893-0.4274 0.19732-0.90607 0.29301-1.374 0.24106-0.64109-0.07118-1.2328-0.41768-1.6734-0.8888-0.44058-0.47112-0.73957-1.0603-0.94455-1.6718-0.40995-1.2232-0.46037-2.5422-0.84857-3.7725-0.30542-0.96792-0.82573-1.8764-1.5582-2.579-0.73247-0.70258-1.6824-1.191-2.6906-1.3079s-2.0689 0.15347-2.8566 0.79352c-0.39385 0.32003-0.71715 0.72798-0.93047 1.1884s-0.31559 0.97309-0.28622 1.4797c0.0467 0.80616 0.41506 1.5536 0.76949 2.2792s0.70902 1.483 0.72494 2.2904c0.0102 0.51556-0.12223 1.0315-0.36714 1.4853s-0.60076 0.84539-1.0211 1.1441c-0.84059 0.59752-1.9229 0.80872-2.9458 0.67713-1.0229-0.13159-1.9871-0.58788-2.8099-1.2097s-1.5118-1.4052-2.1203-2.2379c-3.1364-4.2923-4.1326-9.8779-3.6334-15.17 0.49913-5.2926 2.3792-10.357 4.554-15.208 1.2153-2.7108 2.538-5.3943 4.2974-7.788 1.7594-2.3937 3.9851-4.5004 6.6684-5.7752 3.8794-1.843 8.3982-1.815 12.635-1.1108 4.2368 0.70417 8.3508 2.0403 12.593 2.7084 7.1459 1.1253 14.451 0.32711 21.594-0.8163 2.3032-0.36868 4.6198-0.77444 6.951-0.69607 2.3312 0.07837 4.7139 0.68186 6.5383 2.1351 1.2891 1.0268 2.2406 2.4303 2.9243 3.9299 0.68364 1.4996 1.1137 3.101 1.4976 4.7037 1.1435 4.7746 1.9028 9.6334 2.9836 14.423 0.95776 4.2438 2.1694 8.4405 2.7619 12.75 0.40521 2.9474 0.51416 5.9754-0.15583 8.8741-0.66999 2.8987-2.1774 5.6735-4.549 7.4696-0.30144 0.22829-0.61714 0.44106-0.96086 0.59864-0.34373 0.15758-0.71762 0.25894-1.0957 0.2566-0.37812-2e-3 -0.76077-0.11317-1.0595-0.34499-0.29873-0.23183-0.50561-0.58986-0.52049-0.96769-0.0113-0.28759 0.0868-0.57351 0.24754-0.81223 0.16079-0.23872 0.38167-0.43263 0.62334-0.58895 0.48333-0.31264 1.045-0.47825 1.5631-0.72909 0.84821-0.41066 1.5805-1.0576 2.0927-1.8486 0.51215-0.79107 0.80267-1.724 0.83019-2.666 0.0275-0.94199-0.20803-1.8903-0.67313-2.7099-0.4651-0.81962-1.1584-1.5082-1.9812-1.9677z" clip-path="url(#clipPath1258)" fill="url(#linearGradient1236)"/>
 <path d="m57.895 0-10.414 10.459c-0.23466-0.01267-0.47131-0.01963-0.70901-0.02066l-2.6892-9.9524-1.265 0.3421 2.5968 9.6092h-31.459c-7.7313 0-13.955 6.2239-13.955 13.955v18.34c0 7.7313 6.2239 13.956 13.955 13.956h32.754c7.7313 0 13.955-6.2244 13.955-13.956v-18.34c0-6.901-4.9588-12.6-11.522-13.745l9.681-9.7229zm-45.907 16.885h36.384c2.4905 0 4.4958 2.0048 4.4958 4.4953v23.743c0 2.4905-2.0054 4.4953-4.4958 4.4953h-36.384c-2.4905 0-4.4953-2.0048-4.4953-4.4953v-23.743c0-2.4905 2.0048-4.4953 4.4953-4.4953z" fill="#fff" stroke-linecap="round" stroke-width=".59948" style="paint-order:markers fill stroke"/>
</svg>
